<?xml version="1.0" encoding="utf-8"?>
<!-- Generator: Adobe Illustrator 22.1.0, SVG Export Plug-In . SVG Version: 6.00 Build 0)  -->
<svg version="1.1" id="Layer_1" xmlns="http://www.w3.org/2000/svg" xmlns:xlink="http://www.w3.org/1999/xlink" x="0px" y="0px"
	 viewBox="0 0 1000 1000" style="enable-background:new 0 0 1000 1000;" xml:space="preserve">
<style type="text/css">
	.st0{fill:#3F3F40;}
	.st1{fill:#FED149;}
	.st2{fill:#FFFFFF;stroke:#3F3F40;stroke-width:11;stroke-miterlimit:10;}
	.st3{fill:#FA5C50;}
	.st4{fill:#FEFFFF;}
	.st5{opacity:0.2;}
	.st6{fill:#FF6D55;}
	.st7{fill:#4C91D6;}
	.st8{fill:#FFFFFF;}
	.st9{fill:#FAFBFC;}
	.st10{fill:none;}
</style>
<g>
	<g>
		<g>
			<path class="st0" d="M536.2,448.4h32.2v93.4h51.2v27.1h-83.5V448.4z"/>
			<path class="st0" d="M658.1,568.8h-31.5l58.6-122.6c0.2-0.6,0.6-0.9,1.1-0.9c0.5,0,0.8,0.3,1.1,0.9l58.5,122.6h-33.3l-4.6-10.3
				h-45.4L658.1,568.8z M684.9,506.5l-12,28h24.5L684.9,506.5z"/>
			<path class="st0" d="M757,448.4h81.9v27.1h-49.6v28H833v27.1h-43.8v38.3H757V448.4z"/>
		</g>
	</g>
	<g>
		<g>
			<path class="st0" d="M536.5,580.2h3.4v9.8h5.4v2.9h-8.8V580.2z"/>
			<path class="st0" d="M552.5,580.2h3.4v12.7h-3.4V580.2z"/>
			<path class="st0" d="M566.9,586.5v6.3h-3.2V580c0-0.1,0-0.1,0.1-0.1c0,0,0.1,0,0.2,0.1l8,6.6v-6.4h3.2V593c0,0.1,0,0.1-0.1,0.1
				s-0.1,0-0.2-0.1L566.9,586.5z"/>
			<path class="st0" d="M589.1,588.6V586h6c0,0,0,0.1,0,0.2c0,0.1,0,0.2,0,0.3c0,1.1-0.1,2-0.4,2.8c-0.3,0.8-0.7,1.5-1.3,2
				c-0.5,0.5-1.2,1-2,1.2c-0.8,0.3-1.6,0.4-2.6,0.4c-0.9,0-1.7-0.2-2.5-0.5c-0.8-0.3-1.5-0.8-2.1-1.4c-0.6-0.6-1.1-1.3-1.4-2.1
				c-0.4-0.8-0.5-1.7-0.5-2.6s0.2-1.8,0.5-2.6c0.3-0.8,0.8-1.5,1.4-2.1c0.6-0.6,1.3-1,2.1-1.3c0.8-0.3,1.6-0.5,2.5-0.5
				c1.2,0,2.3,0.3,3.2,0.8c0.9,0.5,1.6,1.2,2.1,2.1l-2.7,1.6c-0.2-0.4-0.6-0.8-1-1.1c-0.4-0.3-1-0.4-1.7-0.4c-0.5,0-1,0.1-1.3,0.3
				c-0.4,0.2-0.7,0.4-0.9,0.7c-0.2,0.3-0.4,0.7-0.6,1.1c-0.1,0.4-0.2,0.9-0.2,1.4s0.1,1,0.2,1.4c0.1,0.4,0.3,0.8,0.6,1.1
				c0.3,0.3,0.6,0.6,1,0.8c0.4,0.2,0.9,0.3,1.4,0.3c0.8,0,1.4-0.1,1.8-0.4c0.4-0.3,0.7-0.6,0.9-1.1H589.1z"/>
			<path class="st0" d="M608.5,593c-0.9,0-1.8-0.2-2.6-0.5c-0.8-0.3-1.5-0.8-2.2-1.3c-0.6-0.6-1.1-1.3-1.5-2.1
				c-0.4-0.8-0.5-1.7-0.5-2.6s0.2-1.8,0.5-2.6c0.4-0.8,0.9-1.5,1.5-2.1c0.6-0.6,1.3-1,2.2-1.3c0.8-0.3,1.7-0.5,2.6-0.5
				c0.9,0,1.8,0.2,2.6,0.5c0.8,0.3,1.5,0.8,2.2,1.3c0.6,0.6,1.1,1.3,1.5,2.1c0.4,0.8,0.6,1.7,0.6,2.6s-0.2,1.8-0.6,2.6
				c-0.4,0.8-0.9,1.5-1.5,2.1c-0.6,0.6-1.3,1-2.2,1.3C610.3,592.9,609.4,593,608.5,593z M608.5,590.1c0.5,0,1-0.1,1.4-0.3
				c0.4-0.2,0.8-0.4,1-0.8c0.3-0.3,0.5-0.7,0.7-1.1c0.2-0.4,0.2-0.9,0.2-1.4s-0.1-1-0.2-1.4c-0.1-0.4-0.4-0.8-0.7-1.1
				c-0.3-0.3-0.6-0.6-1-0.7c-0.4-0.2-0.9-0.3-1.4-0.3c-0.5,0-1,0.1-1.4,0.3c-0.4,0.2-0.8,0.4-1,0.7c-0.3,0.3-0.5,0.7-0.7,1.1
				c-0.2,0.4-0.2,0.9-0.2,1.4s0.1,1,0.2,1.4c0.1,0.4,0.4,0.8,0.7,1.1c0.3,0.3,0.6,0.6,1,0.8C607.5,590,608,590.1,608.5,590.1z"/>
			<path class="st0" d="M622,586.2h4.5v2.7H622V586.2z"/>
			<path class="st0" d="M635.3,592.9H632l6.2-12.9c0-0.1,0.1-0.1,0.1-0.1c0,0,0.1,0,0.1,0.1l6.1,12.9H641l-0.5-1.1h-4.8L635.3,592.9
				z M638.1,586.3l-1.3,2.9h2.6L638.1,586.3z"/>
			<path class="st0" d="M655.5,593c-0.7,0-1.3-0.1-1.9-0.2c-0.6-0.1-1.1-0.3-1.5-0.6c-0.4-0.2-0.8-0.5-1.1-0.8
				c-0.3-0.3-0.6-0.5-0.8-0.8l2.5-1.8c0.3,0.4,0.7,0.7,1.1,1c0.4,0.3,0.9,0.4,1.6,0.4c0.5,0,0.9-0.1,1.2-0.2
				c0.3-0.2,0.4-0.4,0.4-0.8c0-0.3-0.1-0.5-0.3-0.6c-0.2-0.2-0.5-0.3-0.9-0.4l-1.5-0.5c-0.5-0.1-0.9-0.3-1.3-0.6
				c-0.4-0.2-0.7-0.5-1-0.8c-0.3-0.3-0.5-0.7-0.7-1.1c-0.2-0.4-0.2-0.9-0.2-1.4c0-0.6,0.1-1.2,0.4-1.6c0.2-0.5,0.6-0.9,1-1.2
				c0.4-0.3,0.9-0.6,1.4-0.7c0.5-0.2,1.1-0.2,1.6-0.2c0.6,0,1.1,0,1.5,0.1c0.4,0.1,0.8,0.2,1.2,0.4c0.3,0.2,0.6,0.3,0.9,0.5
				c0.3,0.2,0.5,0.4,0.7,0.6l-1.9,2c-0.3-0.3-0.5-0.5-0.9-0.7c-0.3-0.2-0.7-0.3-1.2-0.3c-0.4,0-0.7,0.1-0.9,0.3
				c-0.2,0.2-0.3,0.4-0.3,0.6c0,0.2,0.1,0.4,0.2,0.6c0.1,0.1,0.4,0.3,0.7,0.4l1.7,0.6c0.6,0.2,1.2,0.4,1.6,0.7
				c0.4,0.3,0.8,0.5,1,0.9c0.3,0.3,0.5,0.7,0.6,1c0.1,0.4,0.2,0.8,0.2,1.2c0,0.6-0.1,1.1-0.3,1.6c-0.2,0.5-0.5,0.9-0.9,1.3
				s-0.9,0.6-1.5,0.8C657.1,592.9,656.4,593,655.5,593z"/>
			<path class="st0" d="M671.7,593c-0.7,0-1.3-0.1-1.9-0.2c-0.6-0.1-1.1-0.3-1.5-0.6c-0.4-0.2-0.8-0.5-1.1-0.8s-0.6-0.5-0.8-0.8
				l2.5-1.8c0.3,0.4,0.7,0.7,1.1,1c0.4,0.3,0.9,0.4,1.6,0.4c0.5,0,0.9-0.1,1.2-0.2c0.3-0.2,0.4-0.4,0.4-0.8c0-0.3-0.1-0.5-0.3-0.6
				c-0.2-0.2-0.5-0.3-0.9-0.4l-1.5-0.5c-0.5-0.1-0.9-0.3-1.3-0.6c-0.4-0.2-0.7-0.5-1-0.8c-0.3-0.3-0.5-0.7-0.7-1.1
				c-0.2-0.4-0.2-0.9-0.2-1.4c0-0.6,0.1-1.2,0.4-1.6c0.2-0.5,0.6-0.9,1-1.2c0.4-0.3,0.9-0.6,1.4-0.7c0.5-0.2,1.1-0.2,1.6-0.2
				c0.6,0,1.1,0,1.5,0.1c0.4,0.1,0.8,0.2,1.2,0.4c0.3,0.2,0.6,0.3,0.9,0.5c0.3,0.2,0.5,0.4,0.7,0.6l-1.9,2c-0.3-0.3-0.5-0.5-0.9-0.7
				c-0.3-0.2-0.7-0.3-1.2-0.3c-0.4,0-0.7,0.1-0.9,0.3c-0.2,0.2-0.3,0.4-0.3,0.6c0,0.2,0.1,0.4,0.2,0.6c0.1,0.1,0.4,0.3,0.7,0.4
				l1.7,0.6c0.6,0.2,1.2,0.4,1.6,0.7c0.4,0.3,0.8,0.5,1,0.9c0.3,0.3,0.5,0.7,0.6,1s0.2,0.8,0.2,1.2c0,0.6-0.1,1.1-0.3,1.6
				c-0.2,0.5-0.5,0.9-0.9,1.3c-0.4,0.4-0.9,0.6-1.5,0.8C673.3,592.9,672.5,593,671.7,593z"/>
			<path class="st0" d="M683.6,580.2h8.9v2.9H687v2.9h4.6v2.7H687v1.3h5.8v2.9h-9.1V580.2z"/>
			<path class="st0" d="M702.7,583h-3.4v-2.9h10.1v2.9h-3.4v9.8h-3.4V583z"/>
			<path class="st0" d="M714.5,586.2h4.5v2.7h-4.5V586.2z"/>
			<path class="st0" d="M726.4,580.2h8.6v2.9h-5.2v2.9h4.6v2.9h-4.6v4h-3.4V580.2z"/>
			<path class="st0" d="M742.2,580.2h8.9v2.9h-5.5v2.9h4.6v2.7h-4.6v1.3h5.8v2.9h-9.1V580.2z"/>
			<path class="st0" d="M761.3,583H758v-2.9h10.1v2.9h-3.4v9.8h-3.4V583z"/>
			<path class="st0" d="M786.1,590c-0.6,1.1-1.4,1.8-2.3,2.3c-0.9,0.5-2,0.7-3.3,0.7c-0.9,0-1.7-0.2-2.5-0.5
				c-0.8-0.3-1.5-0.8-2.1-1.3c-0.6-0.6-1.1-1.3-1.4-2.1c-0.4-0.8-0.5-1.7-0.5-2.6s0.2-1.8,0.5-2.6c0.3-0.8,0.8-1.5,1.4-2.1
				c0.6-0.6,1.3-1,2.1-1.3c0.8-0.3,1.6-0.5,2.4-0.5c0.7,0,1.3,0.1,1.9,0.2c0.6,0.1,1.1,0.3,1.5,0.6c0.4,0.2,0.8,0.5,1.2,0.9
				c0.3,0.3,0.7,0.7,0.9,1.1l-2.6,1.7c-0.1-0.2-0.3-0.4-0.4-0.5c-0.2-0.2-0.4-0.3-0.6-0.5c-0.2-0.1-0.5-0.3-0.8-0.3
				c-0.3-0.1-0.7-0.1-1.1-0.1c-0.5,0-0.9,0.1-1.3,0.3c-0.4,0.2-0.7,0.4-0.9,0.7c-0.3,0.3-0.5,0.7-0.6,1.1c-0.1,0.4-0.2,0.9-0.2,1.4
				s0.1,1,0.2,1.4c0.1,0.4,0.3,0.8,0.6,1.1c0.3,0.3,0.6,0.6,1,0.8c0.4,0.2,0.8,0.3,1.3,0.3c0.8,0,1.5-0.2,1.9-0.5
				c0.4-0.3,0.8-0.7,1.1-1.3L786.1,590z"/>
			<path class="st0" d="M800.8,580.2h3.4v12.7h-3.4v-4h-4.4v4H793v-12.7h3.4v5.8h4.4V580.2z"/>
			<path class="st0" d="M811.9,580.2h8.9v2.9h-5.5v2.9h4.6v2.7h-4.6v1.3h5.8v2.9h-9.1V580.2z"/>
			<path class="st0" d="M838.4,592.9h-3.7l-1.8-2.9h-1.3v2.9h-3.4v-12.7h4.8c0.9,0,1.6,0.1,2.3,0.4c0.7,0.3,1.2,0.6,1.7,1.1
				c0.5,0.4,0.8,1,1,1.6c0.2,0.6,0.4,1.3,0.4,2c0,0.9-0.2,1.7-0.6,2.4c-0.4,0.7-1,1.3-1.7,1.7L838.4,592.9z M833,587.2
				c0.8,0,1.3-0.2,1.6-0.6c0.3-0.4,0.5-0.9,0.5-1.5c0-0.3,0-0.6-0.1-0.9c-0.1-0.3-0.2-0.5-0.4-0.7c-0.2-0.2-0.4-0.3-0.6-0.4
				c-0.3-0.1-0.6-0.2-1-0.2h-1.3v4.2H833z"/>
		</g>
	</g>
	<circle class="st1" cx="361.6" cy="515.4" r="124.4"/>
	<path class="st0" d="M452.7,515.4c6.2,0,11,5.4,10.3,11.5c-5.7,50.9-48.9,90.5-101.4,90.5s-95.7-39.6-101.4-90.5
		c-0.7-6.1,4.1-11.5,10.3-11.5H452.7z"/>
	<path class="st2" d="M358.8,671.5"/>
	<path class="st2" d="M358.8,569.2"/>
	<g>
		<path class="st0" d="M338.1,471.7h-0.3c-2.5,0-4.6-1.8-5.2-4.2c-1.9-8.2-9.3-14.3-18-14.3c-8.7,0-16.1,6.1-18,14.3
			c-0.6,2.5-2.7,4.2-5.2,4.2h-0.3c-3.4,0-6-3.1-5.3-6.5c3-13.2,14.7-23,28.8-23c14,0,25.8,9.9,28.8,23
			C344.1,468.5,341.5,471.7,338.1,471.7z"/>
	</g>
	<g>
		<path class="st0" d="M432.1,471.7h-0.3c-2.5,0-4.6-1.8-5.2-4.2c-1.9-8.2-9.3-14.3-18-14.3c-8.7,0-16.1,6.1-18,14.3
			c-0.6,2.5-2.7,4.2-5.2,4.2h-0.3c-3.4,0-6-3.1-5.3-6.5c3-13.2,14.7-23,28.8-23c14,0,25.8,9.9,28.8,23
			C438.1,468.5,435.5,471.7,432.1,471.7z"/>
	</g>
	<g>
		<g>
			<ellipse class="st3" cx="361.6" cy="587.9" rx="71.8" ry="29.5"/>
		</g>
	</g>
	<path class="st4" d="M270.5,515.4c6,0,76.4,42.5,182.2,0H270.5z"/>
	<g class="st5">
		<path class="st0" d="M361.6,605.3c-24.7,0-47.4-8.8-65.1-23.4c-2.3,1.9-4.6,3.9-6.7,6.1c18.4,18.2,43.8,29.5,71.8,29.5
			c28,0,53.3-11.3,71.8-29.5c-2.1-2.1-4.4-4.1-6.7-6.1C409,596.5,386.3,605.3,361.6,605.3z"/>
	</g>
	<polygon class="st6" points="378.2,307.6 348.5,316.7 374.8,337.5 	"/>
	<g>
		<path class="st6" d="M180.3,523.2l-9.1-30.7l30.7-9.1l9.1,30.7L180.3,523.2z M181.4,498.1l4.5,15l15-4.5l-4.5-15L181.4,498.1z"/>
	</g>
	<g>
		<path class="st6" d="M507.9,432.8c-12.4,0-22.5-10.1-22.5-22.5s10.1-22.5,22.5-22.5s22.5,10.1,22.5,22.5S520.3,432.8,507.9,432.8z
			 M507.9,398.8c-6.3,0-11.5,5.2-11.5,11.5s5.2,11.5,11.5,11.5s11.5-5.2,11.5-11.5S514.3,398.8,507.9,398.8z"/>
	</g>
	<polygon class="st7" points="172.5,447.1 181.3,430.5 161.1,432.9 	"/>
	<g>
		<g>
			<path class="st0" d="M412.1,376.6L412.1,376.6c-2.4-1.9-2.7-5.4-0.8-7.7l25-31.1c1.9-2.4,5.4-2.7,7.7-0.8l0,0
				c2.4,1.9,2.7,5.4,0.8,7.7l-25,31.1C417.9,378.2,414.5,378.5,412.1,376.6z"/>
		</g>
	</g>
	<g>
		<g>
			<path class="st1" d="M242.9,409.2l-30.6-1.6c-3-0.2-5.4-2.7-5.2-5.8l0,0c0.2-3,2.7-5.4,5.8-5.2l30.6,1.6c3,0.2,5.4,2.7,5.2,5.8
				l0,0C248.5,407.1,245.9,409.4,242.9,409.2z"/>
		</g>
	</g>
	<path class="st8" d="M409,610.4l-20.6-17.3c-5.3-4.5-6-12.4-1.5-17.7l17.3-20.6c4.5-5.3,12.4-6,17.7-1.5l20.6,17.3
		c5.3,4.5,6,12.4,1.5,17.7l-17.3,20.6C422.3,614.2,414.3,614.9,409,610.4z"/>
	<g>
		<path class="st7" d="M404,590.7c-0.7-0.6-1.2-1.6-1.3-2.5l-1.1-16.7c-0.1-2,1.4-3.8,3.5-3.9c2-0.1,3.8,1.4,3.9,3.5l0.8,12.5
			l21.9-4.3c2-0.4,4,0.9,4.3,2.9c0.4,2-0.9,4-2.9,4.3l-26,5.1c-1,0.2-2.1-0.1-3-0.7C404.1,590.8,404.1,590.7,404,590.7z"/>
	</g>
	<path class="st7" d="M338.6,592.6L322.2,603c-4.3,2.7-9.9,1.4-12.6-2.8l-10.4-16.5c-2.7-4.3-1.4-9.9,2.8-12.6l16.5-10.4
		c4.3-2.7,9.9-1.4,12.6,2.8l10.4,16.5C344.2,584.2,342.9,589.9,338.6,592.6z"/>
	<path class="st6" d="M383.5,692.3l-26.6-3.9c-6.9-1-11.6-7.4-10.6-14.3l3.9-26.6c1-6.9,7.4-11.6,14.3-10.6l26.6,3.9
		c6.9,1,11.6,7.4,10.6,14.3l-3.9,26.6C396.8,688.5,390.4,693.3,383.5,692.3z"/>
	<path class="st1" d="M319.1,660.4l-17.3,11c-4.5,2.8-10.4,1.5-13.2-3l-11-17.3c-2.8-4.5-1.5-10.4,3-13.2l17.3-11
		c4.5-2.8,10.4-1.5,13.2,3l11,17.3C324.9,651.6,323.6,657.5,319.1,660.4z"/>
	<path class="st7" d="M469.1,664l-20.6,2.1c-5.3,0.5-10.1-3.4-10.6-8.7l-2.1-20.6c-0.5-5.3,3.4-10.1,8.7-10.6l20.6-2.1
		c5.3-0.5,10.1,3.4,10.6,8.7l2.1,20.6C478.3,658.7,474.5,663.4,469.1,664z"/>
	<g>
		<path class="st8" d="M386.5,676.2l-27.1-4.8c-1.2-0.2-1.9-1.3-1.7-2.5l3.9-21.7c0.2-1.2,1.3-1.9,2.5-1.7l27.1,4.8
			c1.2,0.2,1.9,1.3,1.7,2.5l-3.9,21.7C388.8,675.7,387.7,676.4,386.5,676.2z"/>
		<line class="st8" x1="358.5" y1="664.2" x2="389.8" y2="669.7"/>
		<path class="st6" d="M374.6,670.5c-0.1,0.6-0.6,0.9-1.2,0.8s-0.9-0.6-0.8-1.2c0.1-0.6,0.6-0.9,1.2-0.8
			C374.3,669.4,374.7,670,374.6,670.5z"/>
		
			<rect x="368.8" y="673.8" transform="matrix(0.9846 0.1749 -0.1749 0.9846 123.9799 -54.7549)" class="st8" width="7.6" height="4.2"/>
		<path class="st8" d="M378.8,682.6l-14.3-2.5c-0.7-0.1-1.2-0.8-1-1.5l0.1-0.8c0.1-0.7,0.8-1.2,1.5-1l14.3,2.5
			c0.7,0.1,1.2,0.8,1,1.5l-0.1,0.8C380.2,682.2,379.5,682.7,378.8,682.6z"/>
	</g>
	<g>
		<path class="st8" d="M302.3,661c0.5,0.9,0.2,1.9-0.7,2.4c-0.9,0.5-1.9,0.2-2.4-0.7c-0.5-0.9-0.2-1.9,0.7-2.4
			C300.7,659.8,301.8,660.2,302.3,661z"/>
		<circle class="st8" cx="312.2" cy="654.5" r="1.5"/>
		<polygon class="st8" points="308.1,646.1 295.5,653.1 289,646 305.6,636.9 		"/>
		<path class="st8" d="M300.7,661.6l0.9-3l10.6-5.8c0.9-0.5,1.2-1.6,0.7-2.5h0c-0.5-0.9-1.6-1.2-2.5-0.7l-12.2,6.7L284.5,641l-4,2.2
			"/>
		<line class="st8" x1="291.2" y1="648.2" x2="301.7" y2="642.4"/>
		<line class="st8" x1="293.2" y1="650.6" x2="300.3" y2="646.8"/>
	</g>
	<path class="st1" d="M314,570.2c-4.5,2.4-6.1,8-3.7,12.5c2.6,4.9,16.9,11.9,16.9,11.9s1.8-15.9-0.7-20.7
		C324.1,569.4,318.5,567.8,314,570.2z M319.6,580.4c-1.7,0.9-3.8,0.3-4.7-1.4s-0.3-3.8,1.4-4.7c1.7-0.9,3.8-0.3,4.7,1.4
		C321.8,577.4,321.2,579.5,319.6,580.4z"/>
	<g>
		<g>
			<path class="st9" d="M457.1,631.3C457.1,631.3,457.1,631.3,457.1,631.3l1.4,9.4l7.3-6C463.6,632.5,460.5,631.3,457.1,631.3z"/>
			<path class="st9" d="M444.2,642.4h10.6l-1.7-10.5C448.4,633.4,444.9,637.5,444.2,642.4z"/>
			<path class="st9" d="M462.8,642.4h7.2c-0.3-1.6-0.8-3.2-1.6-4.6L462.8,642.4z"/>
			<path class="st9" d="M457.1,657.6C457.1,657.6,457.2,657.6,457.1,657.6l-1.5-9.7l-8,5.5C450,656,453.4,657.6,457.1,657.6z"/>
			<path class="st9" d="M470.1,646.4h-10.6l1.7,10.5C465.8,655.4,469.3,651.4,470.1,646.4z"/>
		</g>
		<g>
			<polyline class="st10" points="444.1,645.8 442.6,648.7 445.4,650.3 			"/>
			<line class="st10" x1="444" y1="648.2" x2="454.5" y2="645.5"/>
		</g>
	</g>
	<polygon class="st0" points="289,326.3 265.2,315.7 271.5,343.7 	"/>
	<circle class="st7" cx="213.6" cy="356.8" r="10.3"/>
	<circle class="st1" cx="321.4" cy="361.8" r="13"/>
	<circle class="st1" cx="502.4" cy="465.7" r="6"/>
	<circle class="st0" cx="217.7" cy="453.2" r="14.4"/>
	<circle class="st7" cx="476.4" cy="366.4" r="9.6"/>
	<path class="st1" d="M369.9,560.6l-7.5,4.8c-1.9,1.2-4.5,0.7-5.7-1.3l-4.8-7.5c-1.2-1.9-0.7-4.5,1.3-5.7l7.5-4.8
		c1.9-1.2,4.5-0.7,5.7,1.3l4.8,7.5C372.5,556.8,371.9,559.3,369.9,560.6z"/>
	
		<rect x="362" y="650.5" transform="matrix(0.9846 0.1749 -0.1749 0.9846 121.0997 -55.5327)" class="st6" width="27.2" height="17.3"/>
</g>
</svg>
